<svg width="2868" height="598" xmlns="http://www.w3.org/2000/svg" xmlns:xlink="http://www.w3.org/1999/xlink" xml:space="preserve" overflow="hidden"><g transform="translate(-765 -1110)"><rect x="769.5" y="1113.5" width="2862" height="578" stroke="#AFABAB" stroke-width="3.4375" stroke-linejoin="round" stroke-miterlimit="10" fill="#FFFFFF"/><text fill="#374151" font-family="Arial,Arial_MSFontService,sans-serif" font-weight="400" font-size="64" transform="matrix(1 0 0 1 801.504 1190)">•</text><text fill="#374151" font-family="Calibri,Calibri_MSFontService,sans-serif" font-weight="400" font-size="64" transform="matrix(1 0 0 1 904.629 1190)">Paréntesis y operaciones entre paréntesis: ( )</text><text fill="#374151" font-family="Arial,Arial_MSFontService,sans-serif" font-weight="400" font-size="64" transform="matrix(1 0 0 1 801.504 1267)">•</text><text fill="#374151" font-family="Calibri,Calibri_MSFontService,sans-serif" font-weight="400" font-size="64" transform="matrix(1 0 0 1 904.629 1267)">Exponenciación: ** o ^</text><text fill="#374151" font-family="Arial,Arial_MSFontService,sans-serif" font-weight="400" font-size="64" transform="matrix(1 0 0 1 801.504 1344)">•</text><text fill="#374151" font-family="Calibri,Calibri_MSFontService,sans-serif" font-weight="400" font-size="64" transform="matrix(1 0 0 1 904.629 1344)">Multiplicación, división y módulo: *, /, %</text><text fill="#374151" font-family="Arial,Arial_MSFontService,sans-serif" font-weight="400" font-size="64" transform="matrix(1 0 0 1 801.504 1421)">•</text><text fill="#374151" font-family="Calibri,Calibri_MSFontService,sans-serif" font-weight="400" font-size="64" transform="matrix(1 0 0 1 904.629 1421)">Suma y resta: +, </text><text fill="#374151" font-family="Calibri,Calibri_MSFontService,sans-serif" font-weight="400" font-size="64" transform="matrix(1 0 0 1 1331.41 1421)">-</text><text fill="#374151" font-family="Arial,Arial_MSFontService,sans-serif" font-weight="400" font-size="64" transform="matrix(1 0 0 1 801.504 1498)">•</text><text fill="#374151" font-family="Calibri,Calibri_MSFontService,sans-serif" font-weight="400" font-size="64" transform="matrix(1 0 0 1 904.629 1498)">Operaciones de comparación: &lt;, &gt;, &lt;=, &gt;=, ==, !=</text><text fill="#374151" font-family="Arial,Arial_MSFontService,sans-serif" font-weight="400" font-size="64" transform="matrix(1 0 0 1 801.504 1575)">•</text><text fill="#374151" font-family="Calibri,Calibri_MSFontService,sans-serif" font-weight="400" font-size="64" transform="matrix(1 0 0 1 904.629 1575)">Operaciones lógicas: </text><text fill="#374151" font-family="Calibri,Calibri_MSFontService,sans-serif" font-weight="400" font-size="64" transform="matrix(1 0 0 1 1453.94 1575)">not</text><text fill="#374151" font-family="Calibri,Calibri_MSFontService,sans-serif" font-weight="400" font-size="64" transform="matrix(1 0 0 1 1543.32 1575)">, and, </text><text fill="#374151" font-family="Calibri,Calibri_MSFontService,sans-serif" font-weight="400" font-size="64" transform="matrix(1 0 0 1 1702.59 1575)">or</text><text fill="#374151" font-family="Calibri,Calibri_MSFontService,sans-serif" font-weight="400" font-size="64" transform="matrix(1 0 0 1 1773.06 1575)">(en este orden)</text><text fill="#374151" font-family="Arial,Arial_MSFontService,sans-serif" font-weight="400" font-size="64" transform="matrix(1 0 0 1 801.504 1652)">•</text><text fill="#374151" font-family="Calibri,Calibri_MSFontService,sans-serif" font-weight="400" font-size="64" transform="matrix(1 0 0 1 904.629 1652)">Asignación: =</text><path d="M2431.15 1176.92 2431.15 1633.42 2428.85 1633.42 2428.85 1176.92ZM2416.25 1181.5 2430 1154 2443.75 1181.5ZM2443.75 1628.83 2430 1656.33 2416.25 1628.83Z" fill="#4472C4"/><text fill="#4472C4" font-family="Calibri,Calibri_MSFontService,sans-serif" font-weight="400" font-size="60" transform="matrix(1 0 0 1 2463.45 1249)">MAYOR PRECEDENCIA (se evalúa primero)</text><text fill="#4472C4" font-family="Calibri,Calibri_MSFontService,sans-serif" font-weight="400" font-size="60" transform="matrix(1 0 0 1 2463.45 1594)">MENOR PRECEDENCIA (se evalúa última)</text></g></svg>